<svg width="35" height="35" viewBox="0 0 35 35" fill="none" xmlns="http://www.w3.org/2000/svg">
<path d="M17.5 30.625C24.7487 30.625 30.625 24.7487 30.625 17.5C30.625 10.2513 24.7487 4.375 17.5 4.375C10.2513 4.375 4.375 10.2513 4.375 17.5C4.375 24.7487 10.2513 30.625 17.5 30.625Z" stroke="#FB4E0B" stroke-width="1.5" stroke-miterlimit="10"/>
<path d="M17.4993 19.6583V21.2333M17.4993 19.6583C18.2315 19.6583 18.8251 19.0706 18.8251 18.3458C18.8251 17.6209 18.2315 17.0333 17.4993 17.0333C16.7672 17.0333 16.1736 17.6209 16.1736 18.3458C16.1736 19.0706 16.7672 19.6583 17.4993 19.6583ZM15.113 14.9333V12.5708C15.113 11.9442 15.3644 11.3433 15.8119 10.9002C16.2595 10.4572 16.8664 10.2083 17.4993 10.2083C18.1323 10.2083 18.7392 10.4572 19.1868 10.9002C19.6343 11.3433 19.8857 11.9442 19.8857 12.5708V14.9333M12.1963 14.9333H22.8024C23.0953 14.9333 23.3327 15.1683 23.3327 15.4583V22.8083C23.3327 23.0982 23.0953 23.3333 22.8024 23.3333H12.1963C11.9034 23.3333 11.666 23.0982 11.666 22.8083V15.4583C11.666 15.1683 11.9034 14.9333 12.1963 14.9333Z" stroke="#FB4E0B" stroke-width="0.75" stroke-linecap="round" stroke-linejoin="round"/>
</svg>
