<svg width="77" height="83" viewBox="0 0 77 83" fill="none" xmlns="http://www.w3.org/2000/svg">
<path d="M43.0229 1H3.88109C3.11697 1 2.38416 1.33688 1.84385 1.93655C1.30354 2.53622 1 3.34954 1 4.1976L1 68.1497C1 68.9977 1.30354 69.8111 1.84385 70.4107C2.38416 71.0104 3.11697 71.3473 3.88109 71.3473H61.5028C62.2669 71.3473 62.9997 71.0104 63.5401 70.4107C64.0804 69.8111 64.3839 68.9977 64.3839 68.1497V24.7077C64.3839 24.2878 64.3094 23.872 64.1646 23.484C64.0198 23.0961 63.8076 22.7436 63.5401 22.4467L45.0602 1.93656C44.7926 1.63963 44.475 1.40411 44.1255 1.24341C43.7759 1.08271 43.4013 1 43.0229 1Z" fill="white"/>
<path d="M64.1232 23.3864H44.2163L44.2163 1.29098" fill="white"/>
<path d="M21.1676 36.1736H44.2163M21.1676 48.9641H44.2163M64.1232 23.3864H44.2163L44.2163 1.29098M43.0229 1H3.88109C3.11697 1 2.38416 1.33689 1.84385 1.93655C1.30354 2.53622 1 3.34954 1 4.1976L1 68.1497C1 68.9977 1.30354 69.8111 1.84385 70.4107C2.38416 71.0104 3.11697 71.3473 3.88109 71.3473H61.5028C62.2669 71.3473 62.9997 71.0104 63.5401 70.4107C64.0804 69.8111 64.3839 68.9977 64.3839 68.1497V24.7077C64.3839 24.2878 64.3094 23.872 64.1646 23.484C64.0198 23.0961 63.8076 22.7436 63.5401 22.4467L45.0602 1.93656C44.7926 1.63964 44.475 1.4041 44.1255 1.24341C43.7759 1.08271 43.4013 1 43.0229 1Z" stroke="#455468" stroke-width="2" stroke-linecap="round" stroke-linejoin="round"/>
<path d="M63.5 79C70.4036 79 76 73.4036 76 66.5C76 59.5964 70.4036 54 63.5 54C56.5964 54 51 59.5964 51 66.5C51 73.4036 56.5964 79 63.5 79Z" fill="#BF0026"/>
<path d="M59.0806 65.7111L63.5 61.2917L67.9194 65.7111" fill="#BF0026"/>
<path d="M58.5503 65.1807C58.2574 65.4736 58.2574 65.9485 58.5503 66.2414C58.8432 66.5343 59.318 66.5343 59.6109 66.2414L58.5503 65.1807ZM63.5 61.2917L64.0303 60.7613C63.7374 60.4684 63.2626 60.4684 62.9697 60.7613L63.5 61.2917ZM67.3891 66.2414C67.682 66.5343 68.1568 66.5343 68.4497 66.2414C68.7426 65.9485 68.7426 65.4736 68.4497 65.1807L67.3891 66.2414ZM62.75 71.7083C62.75 72.1225 63.0858 72.4583 63.5 72.4583C63.9142 72.4583 64.25 72.1225 64.25 71.7083H62.75ZM75.25 66.5C75.25 72.9893 69.9893 78.25 63.5 78.25V79.75C70.8178 79.75 76.75 73.8178 76.75 66.5H75.25ZM63.5 78.25C57.0107 78.25 51.75 72.9893 51.75 66.5H50.25C50.25 73.8178 56.1822 79.75 63.5 79.75V78.25ZM51.75 66.5C51.75 60.0107 57.0107 54.75 63.5 54.75V53.25C56.1822 53.25 50.25 59.1822 50.25 66.5H51.75ZM63.5 54.75C69.9893 54.75 75.25 60.0107 75.25 66.5H76.75C76.75 59.1822 70.8178 53.25 63.5 53.25V54.75ZM59.6109 66.2414L64.0303 61.822L62.9697 60.7613L58.5503 65.1807L59.6109 66.2414ZM62.9697 61.822L67.3891 66.2414L68.4497 65.1807L64.0303 60.7613L62.9697 61.822ZM64.25 71.7083V61.2917H62.75V71.7083H64.25Z" fill="white"/>
</svg>
