<svg width="121" height="96" viewBox="0 0 121 96" fill="none" xmlns="http://www.w3.org/2000/svg">
<path d="M37 78V24C37 23.2044 37.3161 22.4413 37.8787 21.8787C38.4413 21.3161 39.2044 21 40 21H60C60.6491 21 61.2807 21.2105 61.8 21.6L72.2 29.4C72.7193 29.7895 73.3509 30 74 30H100C100.796 30 101.559 30.3161 102.121 30.8787C102.684 31.4413 103 32.2044 103 33V42" fill="white"/>
<path d="M37 78L48.3162 44.0513C48.5153 43.454 48.8974 42.9344 49.4081 42.5663C49.9189 42.1981 50.5326 42 51.1623 42H110.838C111.313 42 111.782 42.113 112.205 42.3296C112.628 42.5462 112.994 42.8602 113.271 43.2459C113.549 43.6315 113.732 44.0777 113.803 44.5476C113.875 45.0175 113.834 45.4977 113.684 45.9487L103 78H37Z" fill="white"/>
<path d="M37 78V24C37 23.2044 37.3161 22.4413 37.8787 21.8787C38.4413 21.3161 39.2044 21 40 21H60C60.6491 21 61.2807 21.2105 61.8 21.6L72.2 29.4C72.7193 29.7895 73.3509 30 74 30H100C100.796 30 101.559 30.3161 102.121 30.8787C102.684 31.4413 103 32.2044 103 33V42M37 78L48.3162 44.0513C48.5153 43.454 48.8974 42.9344 49.4081 42.5663C49.9189 42.1981 50.5326 42 51.1623 42H110.838C111.313 42 111.782 42.113 112.205 42.3296C112.628 42.5462 112.994 42.8602 113.271 43.2459C113.549 43.6315 113.732 44.0777 113.803 44.5476C113.875 45.0175 113.834 45.4977 113.684 45.9487L103 78H37Z" stroke="#455468" stroke-width="2" stroke-linecap="round" stroke-linejoin="round"/>
<path d="M17.7814 25.258L2.15155 34.894C1.84643 35.0821 1.63674 35.3971 1.56862 35.7695C1.50049 36.142 1.57951 36.5415 1.78829 36.8801L17.5321 62.417C17.7409 62.7556 18.0624 63.0057 18.4257 63.1121C18.7891 63.2186 19.1647 63.1727 19.4698 62.9846L42.4789 48.7991C42.784 48.611 42.9937 48.2961 43.0618 47.9236C43.1299 47.5512 43.0509 47.1517 42.8421 46.813L32.1475 29.4661C32.0441 29.2984 31.912 29.1507 31.7587 29.0315C31.6053 28.9122 31.4338 28.8237 31.2539 28.771L18.8254 25.1305C18.6455 25.0778 18.4607 25.0619 18.2815 25.0838C18.1024 25.1057 17.9324 25.1649 17.7814 25.258Z" fill="white"/>
<path d="M31.7181 29.0027L23.769 33.9034L18.3295 25.0804" fill="white"/>
<path d="M14.5646 39.5763L19.1664 36.7392M17.7134 44.6837L26.917 39.0095M20.8622 49.791L30.0658 44.1169M31.7181 29.0027L23.769 33.9034L18.3295 25.0804M17.7814 25.258L2.15155 34.894C1.84643 35.0821 1.63674 35.3971 1.56862 35.7695C1.50049 36.142 1.57951 36.5415 1.78829 36.8801L17.5321 62.417C17.7409 62.7556 18.0624 63.0057 18.4257 63.1121C18.7891 63.2186 19.1647 63.1727 19.4698 62.9846L42.4789 48.7991C42.784 48.611 42.9937 48.2961 43.0618 47.9236C43.1299 47.5512 43.0509 47.1517 42.8421 46.813L32.1475 29.4661C32.0441 29.2984 31.912 29.1507 31.7587 29.0315C31.6053 28.9122 31.4338 28.8237 31.2539 28.771L18.8254 25.1305C18.6455 25.0778 18.4607 25.0619 18.2815 25.0838C18.1024 25.1057 17.9324 25.1649 17.7814 25.258Z" stroke="#455468" stroke-width="2" stroke-linecap="round" stroke-linejoin="round"/>
</svg>
